<svg xmlns="http://www.w3.org/2000/svg" viewBox="0 0 42.72 37.38"><defs><style>.cls-1{fill:#3c3c3b;}</style></defs><g id="katman_2" data-name="katman 2"><g id="katman_1-2" data-name="katman 1"><path class="cls-1" d="M40.05,0H20a2.67,2.67,0,0,0-2.67,2.67v8h1.33v-8A1.33,1.33,0,0,1,20,1.34h20a1.33,1.33,0,0,1,1.34,1.33V16a1.34,1.34,0,0,1-1.34,1.34H38.72v4.78l-4.4-4.39-.39-.39H26.7v1.33h6.68l6.67,6.68V18.69A2.66,2.66,0,0,0,42.72,16V2.67A2.67,2.67,0,0,0,40.05,0Z"/><path class="cls-1" d="M26.7,14.69v.37A18.59,18.59,0,0,0,30,12.44a19.3,19.3,0,0,0,3.66,2.82.73.73,0,0,0,.35.09.67.67,0,0,0,.57-.32.66.66,0,0,0-.23-.91,17.91,17.91,0,0,1-3.45-2.67A9.91,9.91,0,0,0,33.37,6h1.34a.67.67,0,1,0,0-1.34h-4V4a.67.67,0,0,0-1.34,0v.66h-4a.67.67,0,1,0,0,1.34H32a8.43,8.43,0,0,1-2,4.44,9.53,9.53,0,0,1-1.71-3.11H26.94a10.91,10.91,0,0,0,2.2,4.12,17.14,17.14,0,0,1-2.6,2.11A3.75,3.75,0,0,1,26.7,14.69Z"/><path class="cls-1" d="M22.7,12h-20A2.67,2.67,0,0,0,0,14.69V28a2.68,2.68,0,0,0,2.67,2.67v6.67l6.68-6.67H22.7A2.68,2.68,0,0,0,25.37,28V14.69A2.67,2.67,0,0,0,22.7,12ZM24,28a1.34,1.34,0,0,1-1.33,1.33H8.79l-.39.39L4,34.16V29.37H2.67A1.33,1.33,0,0,1,1.34,28V14.69a1.33,1.33,0,0,1,1.33-1.34h20A1.34,1.34,0,0,1,24,14.69Z"/><path class="cls-1" d="M13.31,15.79a.66.66,0,0,0-1.25,0l-4,10.68a.67.67,0,0,0,1.25.47l.84-2.24h5.09l.83,2.24a.67.67,0,0,0,.63.43.59.59,0,0,0,.23,0,.67.67,0,0,0,.39-.86Zm-2.67,7.57,2-5.44,2,5.44Z"/></g></g></svg>