<svg xmlns="http://www.w3.org/2000/svg" viewBox="0 0 33.97 35.53"><defs><style>.cls-1{fill:#3c3c3b;}</style></defs><g id="katman_2" data-name="katman 2"><g id="katman_1-2" data-name="katman 1"><path class="cls-1" d="M6.57,25.2a3.29,3.29,0,1,0-3.28,3.29A3.28,3.28,0,0,0,6.57,25.2Zm-1.09,0A2.19,2.19,0,1,1,3.29,23,2.19,2.19,0,0,1,5.48,25.2Z"/><path class="cls-1" d="M11.11,29a3.29,3.29,0,1,0,3.29,3.29A3.28,3.28,0,0,0,11.11,29Zm2.19,3.29a2.19,2.19,0,1,1-2.19-2.2A2.19,2.19,0,0,1,13.3,32.25Z"/><polygon class="cls-1" points="12.81 22.69 11.96 22 1.69 34.64 1.59 34.76 2.44 35.45 12.71 22.81 12.81 22.69"/><path class="cls-1" d="M26.14,16.44V0H17.22V7.83H9.39V21.05h1.1V8.92h6.73V34.44H15.27v1.09H34V16.44ZM25,1.1V34.44H18.31V1.1Zm7.83,16.43V34.44H26.14V17.53Z"/></g></g></svg>