<svg xmlns="http://www.w3.org/2000/svg" viewBox="0 0 62.61 39.64"><defs><style>.cls-1{fill:#3c3c3b;}</style></defs><g id="katman_2" data-name="katman 2"><g id="katman_1-2" data-name="katman 1"><path class="cls-1" d="M26.88,5.11h-.59a5.12,5.12,0,1,0,1.5-3.61,5.1,5.1,0,0,0-1.5,3.61h1.17a3.93,3.93,0,1,1,1.15,2.78,4,4,0,0,1-1.15-2.78Z"/><path class="cls-1" d="M15.53,7.91H15A5.09,5.09,0,1,0,16.44,4.3,5.09,5.09,0,0,0,15,7.91h1.17A3.93,3.93,0,0,1,20.05,4a4,4,0,0,1,2.79,1.15A3.91,3.91,0,0,1,24,7.91a3.94,3.94,0,1,1-7.87,0Z"/><path class="cls-1" d="M4.19,10.72H3.61A5.1,5.1,0,1,0,5.1,7.11a5.09,5.09,0,0,0-1.49,3.61H4.78A4,4,0,0,1,5.93,7.93,3.91,3.91,0,0,1,8.71,6.78a3.93,3.93,0,0,1,3.94,3.94A3.91,3.91,0,0,1,11.5,13.5a4,4,0,0,1-2.79,1.15,3.93,3.93,0,0,1-3.93-3.93Z"/><polyline class="cls-1" points="35.98 18.12 35.98 39.64 37.15 39.64 37.15 18.12"/><polyline class="cls-1" points="30.95 31.57 30.95 39.64 32.12 39.64 32.12 31.57"/><polyline class="cls-1" points="19.38 31.57 19.38 39.64 20.55 39.64 20.55 31.57"/><polyline class="cls-1" points="7.8 31.57 7.8 39.64 8.97 39.64 8.97 31.57"/><polyline class="cls-1" points="24.99 18.12 24.99 39.64 26.16 39.64 26.16 18.12"/><polyline class="cls-1" points="14.58 20.7 14.58 39.64 15.75 39.64 15.75 20.7"/><polyline class="cls-1" points="3.13 23.97 3.13 39.64 4.29 39.64 4.29 23.97"/><path class="cls-1" d="M37.09,27.38s.78-1.6,1.56-3.72a31.46,31.46,0,0,0,1.07-3.47,16.14,16.14,0,0,0,.5-3.54,6.88,6.88,0,0,0-.18-1.6A3.82,3.82,0,0,0,39.63,14a2.72,2.72,0,0,0-.5-.67,3,3,0,0,0-1.11-.7,4.14,4.14,0,0,0-1.46-.24H25.63V13l0-.59h0a3,3,0,0,0-.72.1,3.5,3.5,0,0,0-.91.35,3.55,3.55,0,0,0-1.62,2A6.33,6.33,0,0,0,22,17.06a15.13,15.13,0,0,0,.7,4.21,41.22,41.22,0,0,0,2.43,6.17l1.06-.51a38.8,38.8,0,0,1-2.37-6,14.17,14.17,0,0,1-.65-3.88A4.92,4.92,0,0,1,23.55,15a2.7,2.7,0,0,1,.58-.82,2.29,2.29,0,0,1,.94-.52,2.24,2.24,0,0,1,.54-.09h0v0h0v0h11a2.86,2.86,0,0,1,1.21.23,1.83,1.83,0,0,1,.57.4,2.44,2.44,0,0,1,.53,1,5.3,5.3,0,0,1,.18,1.46,14.39,14.39,0,0,1-.47,3.26A34.43,34.43,0,0,1,37,24.7c-.26.65-.5,1.2-.67,1.58l-.21.44,0,.11,0,0h0l1.05.51Z"/><path class="cls-1" d="M20.56,14.06a5.86,5.86,0,0,1-.75,0c-.52,0-1.08,0-1.66-.09s-1.18-.09-1.78-.09a7.71,7.71,0,0,0-1.18.08,4.07,4.07,0,0,0-1.67.61,3.16,3.16,0,0,0-.71.62,3.52,3.52,0,0,0-.55.86l.52.25-.51-.27a6.42,6.42,0,0,0-.72,3,12.1,12.1,0,0,0,.58,3.38c.32,1.1.71,2.16,1,3.16v0a28.58,28.58,0,0,0,1.58,3.49l1-.58a27,27,0,0,1-1.52-3.35l-.54.22.56-.18c-.33-1-.73-2.08-1-3.13a10.87,10.87,0,0,1-.53-3,5.45,5.45,0,0,1,.58-2.49h0a2.83,2.83,0,0,1,.53-.75,2.19,2.19,0,0,1,.5-.36,3,3,0,0,1,.91-.3,5.65,5.65,0,0,1,1.12-.09c.53,0,1.1,0,1.69.09s1.17.09,1.75.09a8.51,8.51,0,0,0,.88,0l-.13-1.17Z"/><path class="cls-1" d="M9,17.68a6.06,6.06,0,0,1-.75,0c-.52,0-1.09,0-1.67-.09s-1.18-.09-1.77-.09a7.84,7.84,0,0,0-1.19.08,4.31,4.31,0,0,0-1.67.6,3.44,3.44,0,0,0-.7.63,3.87,3.87,0,0,0-.56.86l.53.25-.52-.27a6.48,6.48,0,0,0-.71,3A12.15,12.15,0,0,0,.57,26.1c.32,1.1.72,2.16,1,3.16v0a29.36,29.36,0,0,0,1.59,3.49l1-.58a28.54,28.54,0,0,1-1.51-3.35l-.54.22.55-.18c-.33-1-.72-2.08-1-3.13a11.22,11.22,0,0,1-.52-3.05,5.21,5.21,0,0,1,.58-2.49h0a2.62,2.62,0,0,1,.53-.76,2.09,2.09,0,0,1,.49-.35,3.11,3.11,0,0,1,.92-.31,6.56,6.56,0,0,1,1.12-.08c.53,0,1.1,0,1.68.09s1.18.09,1.76.09a6.35,6.35,0,0,0,.87-.05L9,17.68Z"/><path class="cls-1" d="M47.07,7.91h-.58a3.93,3.93,0,0,1-3.94,3.94,3.91,3.91,0,0,1-2.78-1.15,4,4,0,0,1-1.15-2.79A3.93,3.93,0,0,1,42.55,4a4,4,0,0,1,2.79,1.15,3.91,3.91,0,0,1,1.15,2.78h1.17a5.12,5.12,0,1,0-1.5,3.61,5.06,5.06,0,0,0,1.5-3.61Z"/><path class="cls-1" d="M58.41,10.72h-.58a3.91,3.91,0,0,1-1.15,2.78,4,4,0,0,1-2.79,1.15A3.93,3.93,0,0,1,50,10.72a4,4,0,0,1,1.15-2.79,3.91,3.91,0,0,1,2.78-1.15,3.93,3.93,0,0,1,3.94,3.94H59a5.11,5.11,0,1,0-8.72,3.61,5.12,5.12,0,0,0,7.22,0A5.06,5.06,0,0,0,59,10.72Z"/><polyline class="cls-1" points="41.94 31.57 41.94 39.64 43.11 39.64 43.11 31.57"/><polyline class="cls-1" points="53.52 31.57 53.52 39.64 54.69 39.64 54.69 31.57"/><polyline class="cls-1" points="46.74 20.7 46.74 39.64 47.91 39.64 47.91 20.7"/><polyline class="cls-1" points="58.2 23.97 58.2 39.64 59.37 39.64 59.37 23.97"/><path class="cls-1" d="M41.92,15.23a8.44,8.44,0,0,0,.87,0c.59,0,1.18,0,1.76-.09s1.15-.09,1.68-.09a6.41,6.41,0,0,1,1,.07,2.9,2.9,0,0,1,1.2.42,2.27,2.27,0,0,1,.47.41,2.47,2.47,0,0,1,.38.6h0a5.21,5.21,0,0,1,.58,2.49,10.85,10.85,0,0,1-.52,3c-.31,1.05-.7,2.1-1,3.13l.56.18-.55-.22a25.59,25.59,0,0,1-1.51,3.35l1,.58a28.58,28.58,0,0,0,1.58-3.49v0c.32-1,.72-2.06,1-3.16a12.09,12.09,0,0,0,.57-3.38,6.53,6.53,0,0,0-.71-3l-.52.27.53-.25a3.76,3.76,0,0,0-.78-1.1,3.41,3.41,0,0,0-.74-.54A4.13,4.13,0,0,0,47.56,14a7.31,7.31,0,0,0-1.33-.11c-.59,0-1.19.05-1.77.09s-1.15.09-1.67.09a5.8,5.8,0,0,1-.74,0l-.13,1.17Z"/><path class="cls-1" d="M53.48,18.84a6.17,6.17,0,0,0,.87.05c.58,0,1.17-.05,1.76-.09s1.15-.09,1.68-.09a6.5,6.5,0,0,1,1,.07,3,3,0,0,1,1.2.42,2,2,0,0,1,.46.41,2.83,2.83,0,0,1,.39.6h0a5.33,5.33,0,0,1,.58,2.49,10.87,10.87,0,0,1-.53,3.05c-.3,1.05-.69,2.1-1,3.13l.56.18-.54-.22a27,27,0,0,1-1.52,3.35l1,.58A27.77,27.77,0,0,0,61,29.3v0c.32-1,.71-2.06,1-3.16a12.15,12.15,0,0,0,.57-3.38,6.48,6.48,0,0,0-.71-3l-.52.27.52-.25a3.73,3.73,0,0,0-.77-1.1,3.24,3.24,0,0,0-.75-.54,4.18,4.18,0,0,0-1.26-.43,8.42,8.42,0,0,0-1.33-.1c-.59,0-1.19.05-1.77.09s-1.15.09-1.67.09a6.06,6.06,0,0,1-.75,0l-.12,1.16Z"/></g></g></svg>