<?xml version="1.0" encoding="utf-8"?>
<!-- Generator: Adobe Illustrator 25.2.0, SVG Export Plug-In . SVG Version: 6.00 Build 0)  -->
<svg version="1.1" id="Layer_1" xmlns="http://www.w3.org/2000/svg" xmlns:xlink="http://www.w3.org/1999/xlink" x="0px" y="0px"
	 viewBox="0 0 250 250" style="enable-background:new 0 0 250 250;" xml:space="preserve">
<style type="text/css">
	.st0{fill:#3D3D3B;}
	.st1{fill:#020203;}
	.st2{fill-rule:evenodd;clip-rule:evenodd;fill:#020203;}
	.st3{fill:#444B54;}
	.st4{fill:#515151;}
</style>
<g>
	<path class="st0" d="M202.1,89.3h-22.8V112h22.8V89.3z M197.4,107.4h-13.5V93.9h13.5V107.4z"/>
	<path class="st0" d="M202.1,122.7h-22.8v22.8h22.8V122.7z M197.4,140.9h-13.5v-13.5h13.5V140.9z"/>
	<path class="st0" d="M202.1,156.2h-22.8V179h22.8V156.2z M197.4,174.3h-13.5v-13.5h13.5V174.3z"/>
	<path class="st0" d="M70.7,89.3H47.9V112h22.8V89.3z M66.1,107.4H52.6V93.9h13.5V107.4z"/>
	<path class="st0" d="M70.7,122.7H47.9v22.8h22.8V122.7z M66.1,140.9H52.6v-13.5h13.5V140.9z"/>
	<path class="st0" d="M70.7,156.2H47.9V179h22.8V156.2z M66.1,174.3H52.6v-13.5h13.5V174.3z"/>
	<path class="st0" d="M119.7,56.2H96.9V79h22.8V56.2z M115,74.4h-13.5V60.9H115V74.4z"/>
	<path class="st0" d="M153.1,56.2h-22.8V79h22.8V56.2z M148.5,74.4H135V60.9h13.5V74.4z"/>
	<path class="st0" d="M119.7,89.7H96.9v22.8h22.8V89.7z M115,107.8h-13.5V94.3H115V107.8z"/>
	<path class="st0" d="M153.1,89.7h-22.8v22.8h22.8V89.7z M148.5,107.8H135V94.3h13.5V107.8z"/>
	<path class="st0" d="M119.7,123.2H96.9V146h22.8V123.2z M115,141.3h-13.5v-13.5H115V141.3z"/>
	<path class="st0" d="M153.1,123.2h-22.8V146h22.8V123.2z M148.5,141.3H135v-13.5h13.5V141.3z"/>
	<path class="st0" d="M216.5,206.9V73.9h-47V38.5h-89v35.4h-47v132.9H21.4v4.6h207.1v-4.6H216.5z M80.5,206.9H38.2V78.6h42.3V206.9z
		 M136,206.9h-22v-35.7h22V206.9z M164.9,206.9h-24.2v-40.3h-31.2v40.3H85.1V43.1h79.7V206.9z M211.8,206.9h-42.3V78.6h42.3V206.9z"
		/>
</g>
</svg>
