<?xml version="1.0" encoding="utf-8"?>
<!-- Generator: Adobe Illustrator 25.2.0, SVG Export Plug-In . SVG Version: 6.00 Build 0)  -->
<svg version="1.1" id="Layer_1" xmlns="http://www.w3.org/2000/svg" xmlns:xlink="http://www.w3.org/1999/xlink" x="0px" y="0px"
	 viewBox="0 0 250 250" style="enable-background:new 0 0 250 250;" xml:space="preserve">
<style type="text/css">
	.st0{fill:#3D3D3B;}
	.st1{fill:#020203;}
	.st2{fill-rule:evenodd;clip-rule:evenodd;fill:#020203;}
	.st3{fill:#444B54;}
	.st4{fill:#515151;}
</style>
<g>
	<path class="st3" d="M169.6,211H42.4c-1.8,0-3.3-1.5-3.3-3.3v-127c0-1.8,1.5-3.3,3.3-3.3h77.9c1.8,0,3.3,1.5,3.3,3.3
		c0,1.8-1.5,3.3-3.3,3.3H45.7v120.4h120.6V83.9h-11.1c-1.8,0-3.3-1.5-3.3-3.3c0-1.8,1.5-3.3,3.3-3.3h14.4c1.8,0,3.3,1.5,3.3,3.3v127
		C172.9,209.5,171.4,211,169.6,211z"/>
	<path class="st3" d="M106,211c-1.8,0-3.3-1.5-3.3-3.3v-22.2c0-1.8,1.5-3.3,3.3-3.3c1.8,0,3.3,1.5,3.3,3.3v22.2
		C109.3,209.5,107.8,211,106,211z M106,153.6c-1.8,0-3.3-1.5-3.3-3.3V80.6c0-1.8,1.5-3.3,3.3-3.3c1.8,0,3.3,1.5,3.3,3.3v69.7
		C109.3,152.1,107.8,153.6,106,153.6z"/>
	<path class="st3" d="M169.6,131.3h-36.3c-1.8,0-3.3-1.5-3.3-3.3c0-1.8,1.5-3.3,3.3-3.3h36.3c1.8,0,3.3,1.5,3.3,3.3
		C172.9,129.9,171.4,131.3,169.6,131.3z M106,131.3H91.7c-1.8,0-3.3-1.5-3.3-3.3c0-1.8,1.5-3.3,3.3-3.3H106c1.8,0,3.3,1.5,3.3,3.3
		C109.3,129.9,107.8,131.3,106,131.3z M56.6,131.3H42.4c-1.8,0-3.3-1.5-3.3-3.3c0-1.8,1.5-3.3,3.3-3.3h14.2c1.8,0,3.3,1.5,3.3,3.3
		C59.9,129.9,58.4,131.3,56.6,131.3z"/>
	<path class="st3" d="M207.6,211h-14.2c-1.8,0-3.3-1.5-3.3-3.3c0-1.8,1.5-3.3,3.3-3.3h14.2c1.8,0,3.3,1.5,3.3,3.3
		C210.9,209.5,209.5,211,207.6,211z"/>
	<path class="st3" d="M207.6,83.9h-14.2c-1.8,0-3.3-1.5-3.3-3.3c0-1.8,1.5-3.3,3.3-3.3h14.2c1.8,0,3.3,1.5,3.3,3.3
		C210.9,82.4,209.5,83.9,207.6,83.9z"/>
	<path class="st3" d="M200.4,211c-1.8,0-3.3-1.5-3.3-3.3v-127c0-1.8,1.5-3.3,3.3-3.3c1.8,0,3.3,1.5,3.3,3.3v127
		C203.7,209.5,202.2,211,200.4,211z"/>
	<path class="st3" d="M169.6,59.9c-1.8,0-3.3-1.5-3.3-3.3V42.4c0-1.8,1.5-3.3,3.3-3.3c1.8,0,3.3,1.5,3.3,3.3v14.2
		C172.9,58.4,171.4,59.9,169.6,59.9z"/>
	<path class="st3" d="M42.4,59.9c-1.8,0-3.3-1.5-3.3-3.3V42.4c0-1.8,1.5-3.3,3.3-3.3c1.8,0,3.3,1.5,3.3,3.3v14.2
		C45.7,58.4,44.2,59.9,42.4,59.9z"/>
	<path class="st3" d="M169.6,52.9H42.4c-1.8,0-3.3-1.5-3.3-3.3c0-1.8,1.5-3.3,3.3-3.3h127.2c1.8,0,3.3,1.5,3.3,3.3
		C172.9,51.4,171.4,52.9,169.6,52.9z"/>
</g>
</svg>
