<?xml version="1.0" encoding="utf-8"?>
<!-- Generator: Adobe Illustrator 25.2.0, SVG Export Plug-In . SVG Version: 6.00 Build 0)  -->
<svg version="1.1" id="Layer_1" xmlns="http://www.w3.org/2000/svg" xmlns:xlink="http://www.w3.org/1999/xlink" x="0px" y="0px"
	 viewBox="0 0 250 250" style="enable-background:new 0 0 250 250;" xml:space="preserve">
<style type="text/css">
	.st0{fill:#3D3D3B;}
	.st1{fill:#020203;}
	.st2{fill-rule:evenodd;clip-rule:evenodd;fill:#020203;}
	.st3{fill:#444B54;}
	.st4{fill:#515151;}
</style>
<g>
	<path class="st1" d="M61.6,211.5h115.3c8,0,14.4-6.5,14.4-14.4V52.9c0-8-6.5-14.4-14.4-14.4H61.6c-1.6,0-2.9,1.3-2.9,2.9v167.2
		C58.7,210.2,60,211.5,61.6,211.5z M64.4,44.3h112.5c4.8,0,8.6,3.9,8.7,8.7v144.2c0,4.8-3.9,8.6-8.7,8.7H64.4V44.3z"/>
	<path class="st1" d="M93.3,61.6h63.4c1.6,0,2.9-1.3,2.9-2.9c0-1.6-1.3-2.9-2.9-2.9H93.3c-1.6,0-2.9,1.3-2.9,2.9
		C90.4,60.3,91.7,61.6,93.3,61.6z"/>
	<path class="st1" d="M130.8,171.1h-11.5c-4.8,0-8.6,3.9-8.7,8.7v11.5c0,4.8,3.9,8.6,8.7,8.7h11.5c4.8,0,8.6-3.9,8.7-8.7v-11.5
		C139.4,175,135.5,171.1,130.8,171.1z M133.7,182.7h-2.9c-1.6,0-2.9,1.3-2.9,2.9s1.3,2.9,2.9,2.9h2.9v2.9c0,1.6-1.3,2.9-2.9,2.9
		h-11.5c-1.6,0-2.9-1.3-2.9-2.9v-2.9h2.9c1.6,0,2.9-1.3,2.9-2.9s-1.3-2.9-2.9-2.9h-2.9v-2.9c0-1.6,1.3-2.9,2.9-2.9h11.5
		c1.6,0,2.9,1.3,2.9,2.9V182.7z"/>
	<path class="st1" d="M151,159.6H99c-1.6,0-2.9,1.3-2.9,2.9s1.3,2.9,2.9,2.9H151c1.6,0,2.9-1.3,2.9-2.9S152.5,159.6,151,159.6z"/>
	<g>
		<g transform="translate(-180.000000, -180.000000)">
			<g transform="translate(180.000000, 180.000000)">
				<path class="st2" d="M141.1,114l-2.5,2.6l-0.5-3.6l-3.2-1.6l3.2-1.6l0.5-3.6l2.5,2.6l3.5-0.6l-1.7,3.2l1.7,3.2L141.1,114z
					 M134.1,118.8c-2.8,5-8.1,8.4-14.2,8.4c-9,0-16.2-7.3-16.2-16.2S111,94.7,120,94.7c6.1,0,11.4,3.4,14.2,8.4
					c-2.3-2.9-5.9-4.7-9.9-4.7c-7,0-12.6,5.6-12.6,12.6s5.6,12.6,12.6,12.6C128.3,123.6,131.8,121.7,134.1,118.8
					C134.1,118.8,131.8,121.7,134.1,118.8z"/>
				<path class="st2" d="M125,143.4c17.9,0,32.4-14.5,32.4-32.4S142.9,78.5,125,78.5S92.6,93,92.6,110.9S107.1,143.4,125,143.4z
					 M125,141.2c16.7,0,30.3-13.6,30.3-30.3S141.7,80.7,125,80.7s-30.3,13.6-30.3,30.3S108.3,141.2,125,141.2z"/>
			</g>
		</g>
	</g>
</g>
</svg>
