<?xml version="1.0" encoding="utf-8"?>
<!-- Generator: Adobe Illustrator 25.2.0, SVG Export Plug-In . SVG Version: 6.00 Build 0)  -->
<svg version="1.1" id="Layer_1" xmlns="http://www.w3.org/2000/svg" xmlns:xlink="http://www.w3.org/1999/xlink" x="0px" y="0px"
	 viewBox="0 0 250 250" style="enable-background:new 0 0 250 250;" xml:space="preserve">
<style type="text/css">
	.st0{fill:#3D3D3B;}
	.st1{fill:#020203;}
	.st2{fill-rule:evenodd;clip-rule:evenodd;fill:#020203;}
	.st3{fill:#444B54;}
	.st4{fill:#515151;}
</style>
<g>
	<path class="st3" d="M214.3,53.2c-2,0-3.6-1.6-3.6-3.6c0-1.8-1.5-3.4-3.4-3.4H200c-2,0-3.6-1.6-3.6-3.6c0-2,1.6-3.6,3.6-3.6h7.4
		c5.8,0,10.5,4.7,10.5,10.5C217.9,51.6,216.3,53.2,214.3,53.2z"/>
	<path class="st3" d="M200,194.1c-2,0-3.6-1.6-3.6-3.6V42.6c0-2,1.6-3.6,3.6-3.6s3.6,1.6,3.6,3.6v147.9
		C203.6,192.5,202,194.1,200,194.1z"/>
	<path class="st3" d="M207.4,211H42.6c-5.8,0-10.5-4.6-10.5-10.3v-151c0-2,1.6-3.6,3.6-3.6c2,0,3.6,1.6,3.6,3.6v151
		c0,1.8,1.5,3.2,3.4,3.2h164.7c1.9,0,3.4-1.4,3.4-3.2v-151c0-2,1.6-3.6,3.6-3.6c2,0,3.6,1.6,3.6,3.6v151
		C217.9,206.3,213.2,211,207.4,211z"/>
	<path class="st3" d="M35.7,53.2c-2,0-3.6-1.6-3.6-3.6c0-5.8,4.7-10.5,10.5-10.5H50c2,0,3.6,1.6,3.6,3.6c0,2-1.6,3.6-3.6,3.6h-7.4
		c-1.8,0-3.4,1.5-3.4,3.4C39.3,51.6,37.7,53.2,35.7,53.2z"/>
	<path class="st3" d="M50,194.1c-2,0-3.6-1.6-3.6-3.6V42.6c0-2,1.6-3.6,3.6-3.6c2,0,3.6,1.6,3.6,3.6v147.9
		C53.6,192.5,52,194.1,50,194.1z"/>
	<path class="st3" d="M200,60.1H65.8c-2,0-3.6-1.6-3.6-3.6c0-2,1.6-3.6,3.6-3.6H200c2,0,3.6,1.6,3.6,3.6
		C203.6,58.5,202,60.1,200,60.1z"/>
	<path class="st3" d="M175.1,185.6H74.9c-2,0-3.6-1.6-3.6-3.6V81.9c0-2,1.6-3.6,3.6-3.6h61.4c2,0,3.6,1.6,3.6,3.6
		c0,2-1.6,3.6-3.6,3.6H78.5v93h93v-93h-7.8c-2,0-3.6-1.6-3.6-3.6c0-2,1.6-3.6,3.6-3.6h11.4c2,0,3.6,1.6,3.6,3.6v100.2
		C178.7,184,177.1,185.6,175.1,185.6z"/>
	<path class="st3" d="M124.9,185.6c-2,0-3.6-1.6-3.6-3.6v-17.5c0-2,1.6-3.6,3.6-3.6s3.6,1.6,3.6,3.6v17.5
		C128.5,184,126.9,185.6,124.9,185.6z M124.9,140.5c-2,0-3.6-1.6-3.6-3.6V81.9c0-2,1.6-3.6,3.6-3.6s3.6,1.6,3.6,3.6v55.1
		C128.5,138.9,126.9,140.5,124.9,140.5z"/>
	<path class="st3" d="M175.1,122.8h-28.7c-2,0-3.6-1.6-3.6-3.6c0-2,1.6-3.6,3.6-3.6h28.7c2,0,3.6,1.6,3.6,3.6
		C178.7,121.2,177.1,122.8,175.1,122.8z M124.9,122.8h-11.2c-2,0-3.6-1.6-3.6-3.6c0-2,1.6-3.6,3.6-3.6h11.2c2,0,3.6,1.6,3.6,3.6
		C128.5,121.2,126.9,122.8,124.9,122.8z M86.1,122.8H74.9c-2,0-3.6-1.6-3.6-3.6c0-2,1.6-3.6,3.6-3.6h11.2c2,0,3.6,1.6,3.6,3.6
		C89.7,121.2,88.1,122.8,86.1,122.8z"/>
</g>
</svg>
