<svg xmlns="http://www.w3.org/2000/svg" viewBox="0 0 67.19 70.79"><defs>
    <style>.cls-1,.cls-3{fill:#fff;}.cls-1{fill-rule:evenodd;}.cls-2{isolation:isolate;}</style>
</defs><g id="Layer_2" data-name="Layer 2"><g id="katman_1" data-name="katman 1">
    <path id="Şekil_9" data-name="Şekil 9" class="cls-1" d="M13.88,68.75v.49L.61,69.11Z"/>
    <path id="Şekil_9_kopya" data-name="Şekil 9 kopya" class="cls-1" d="M53.34,68.73v.42l13.23-.1Z"/>
    <g class="cls-2"><path class="cls-3" d="M18,67.26h2.29V68H18a.44.44,0,0,0-.5.5v1a.44.44,0,0,0,.5.5h1.53V69.4H18.28v-.75h2v2.14H18a1.11,1.11,0,0,1-1.26-1.26v-1A1.11,1.11,0,0,1,18,67.26Z"/><path class="cls-3" d="M23.44,70h2.79v.76H22.68V67.26h.76Z"/><path class="cls-3" d="M28.61,69.53v-1a1.12,1.12,0,0,1,1.27-1.26h1a1.12,1.12,0,0,1,1.27,1.26v1a1.12,1.12,0,0,1-1.27,1.26h-1A1.12,1.12,0,0,1,28.61,69.53Zm.76-1v1a.44.44,0,0,0,.51.5h1a.44.44,0,0,0,.51-.5v-1a.44.44,0,0,0-.51-.5h-1A.44.44,0,0,0,29.37,68.52Z"/><path class="cls-3" d="M37.08,67.26a.89.89,0,0,1,1,1v.12a1.18,1.18,0,0,1-.15.63,1.18,1.18,0,0,1,.15.63v.13a.9.9,0,0,1-1,1H34.54V67.26Zm.25,1a.22.22,0,0,0-.25-.25H35.3v.63h1.78a.23.23,0,0,0,.25-.26ZM37.08,70a.22.22,0,0,0,.25-.25v-.13a.23.23,0,0,0-.25-.25H35.3V70Z"/><path class="cls-3" d="M42.24,67l2.2,3.79h-.88l-.29-.5H41.21l-.29.5H40Zm.59,2.53-.59-1-.59,1Z"/><path class="cls-3" d="M47.16,70h2.78v.76H46.39V67.26h.77Z"/></g><g class="cls-2"><path class="cls-3" d="M1.29,63.32H0v-6H1.29Z"/><path class="cls-3" d="M10.94,61.12V57.3h1.29v6h-.92L7.49,59.5v3.82H6.2v-6h.92Z"/><path class="cls-3" d="M20.15,61.18l2.24-3.88h1.49l-3.73,6.46L16.42,57.3h1.49Z"/><path class="cls-3" d="M34.1,57.3v1.29H29.37v1.08h4.3V61h-4.3V62H34.1v1.29h-6v-6Z"/><path class="cls-3" d="M43.32,57.3A1.52,1.52,0,0,1,45,59H43.75a.38.38,0,0,0-.43-.43H40.73a.38.38,0,0,0-.43.43v.22a.39.39,0,0,0,.43.43h2.59A1.52,1.52,0,0,1,45,61.39v.21a1.52,1.52,0,0,1-1.72,1.72H40.73A1.52,1.52,0,0,1,39,61.6H40.3a.38.38,0,0,0,.43.43h2.59a.38.38,0,0,0,.43-.43v-.21a.38.38,0,0,0-.43-.43H40.73A1.53,1.53,0,0,1,39,59.24V59a1.52,1.52,0,0,1,1.72-1.72Z"/><path class="cls-3" d="M53.61,58.59v4.73H52.32V58.59H50V57.3h6v1.29Z"/></g><path class="cls-3" d="M61.16,61.17V59.45a1.91,1.91,0,0,1,2.16-2.15H65a1.9,1.9,0,0,1,2.15,2.15v1.72A1.9,1.9,0,0,1,65,63.32H63.32A1.9,1.9,0,0,1,61.16,61.17Zm1.3-1.72v1.72a.75.75,0,0,0,.86.86H65a.76.76,0,0,0,.86-.86V59.45a.76.76,0,0,0-.86-.86H63.32A.76.76,0,0,0,62.46,59.45Z"/><path id="G" class="cls-1" d="M13.65,34.91l7.68,7.82q9.59,9.78,19.37.18L58.29,25.64,42,9,26.34,24.37l5.76,5.87,9.77-9.6,4.8,4.89L34.94,37.05Q31,40.89,27.19,37l-7.68-7.82q-3.84-3.91.07-7.75L30.14,11.16,24.33,5.24l-10.5,10.3Q4,25.13,13.65,34.91Z"/><circle id="Elips_3" data-name="Elips 3" class="cls-3" cx="32.73" cy="4.2" r="4.2"/></g></g></svg>