<svg xmlns="http://www.w3.org/2000/svg" viewBox="0 0 32.43 24.23"><defs><style>.cls-1{fill:#033;}</style></defs><g id="Layer_2" data-name="Layer 2"><g id="katman_1" data-name="katman 1"><path class="cls-1" d="M29.06,0H3.37A3.37,3.37,0,0,0,0,3.37V20.86a3.37,3.37,0,0,0,3.37,3.37H29.06a3.37,3.37,0,0,0,3.37-3.37V3.37A3.37,3.37,0,0,0,29.06,0ZM3.37,1.58H29.06a1.79,1.79,0,0,1,1.51.83l-13,11.35,0,0a1.91,1.91,0,0,1-2.71,0l0,0L1.86,2.41A1.79,1.79,0,0,1,3.37,1.58ZM29.06,22.65H3.37a1.79,1.79,0,0,1-1.79-1.79V4.26L13.76,14.94a3.51,3.51,0,0,0,4.91,0L30.85,4.26v16.6A1.79,1.79,0,0,1,29.06,22.65Z"/></g></g></svg>