<svg xmlns="http://www.w3.org/2000/svg" viewBox="0 0 32.78 32.78"><defs><style>.cls-1{fill:#7b3bb2;}.cls-2{fill:#fff;}</style></defs><g id="Layer_2" data-name="Layer 2"><g id="katman_1" data-name="katman 1"><circle class="cls-1" cx="16.39" cy="16.39" r="16.39"/><circle class="cls-2" cx="16.39" cy="16.39" r="14.17"/><path class="cls-1" d="M7.55,12.88s2.48,6,6.52,8.9c3.37,2.41,6.82,4.45,8.24,2.95s2.35-2.58.31-4.11-3.21-2.12-3.95-1.2-1,1.63-3,.47A8.62,8.62,0,0,1,12,15.68c-.27-1-.07-1.42.81-2.13s.44-2-1-3.84S9.91,8.15,8.68,9,6.51,10.9,7.55,12.88Z"/><path class="cls-1" d="M16,8.5a7.33,7.33,0,0,1,7.33,7.33c0,.23,0,.46,0,.68l1.11.39a7.59,7.59,0,0,0,.07-1.07,8.32,8.32,0,0,0-8.31-8.32c-.24,0-.47,0-.71,0l.25,1Z"/><path class="cls-1" d="M16.7,10.73a4.6,4.6,0,0,1,4.61,4.61c0,.16,0,.32,0,.48l.95.33a5.52,5.52,0,0,0,.06-.81,5.74,5.74,0,0,0-5.73-5.73,5.49,5.49,0,0,0-.58,0l.28,1.11A3.1,3.1,0,0,1,16.7,10.73Z"/><path class="cls-1" d="M17.44,12.87a1.81,1.81,0,0,1,1.67,1.72,1.75,1.75,0,0,1,0,.46l1,.35a2.63,2.63,0,0,0,.09-.74,2.88,2.88,0,0,0-2.85-2.85,3,3,0,0,0-.74.09l.26,1A1.76,1.76,0,0,1,17.44,12.87Z"/></g></g></svg>