<svg xmlns="http://www.w3.org/2000/svg" viewBox="0 0 31.31 31.31"><defs><style>.cls-1{fill:#fff;}.cls-2{fill:#3cbb28;}</style></defs><g id="Layer_2" data-name="Layer 2"><g id="katman_1" data-name="katman 1"><path class="cls-1" d="M15.65.93A14.73,14.73,0,0,0,3.91,24.54L2,29.79l5.93-1.61A14.73,14.73,0,1,0,15.65.93Z"/><path class="cls-2" d="M15.65,31.31a15.56,15.56,0,0,1-7.88-2.13l-7.29,2,2.39-6.48a15.2,15.2,0,0,1-2-4A15.7,15.7,0,0,1,9.56,1.23,15.61,15.61,0,0,1,26.72,4.59a15.67,15.67,0,0,1-5,25.49A15.5,15.5,0,0,1,15.65,31.31ZM8.06,27.17l.34.22A13.8,13.8,0,1,0,1.86,15.65,13.64,13.64,0,0,0,4.66,24l.3.41-1.48,4Z"/><path class="cls-2" d="M10.24,7.56a1.27,1.27,0,0,1,1.06.1,2.86,2.86,0,0,1,.5.42l2.36,2.37a1.3,1.3,0,0,1,.39.92,1.36,1.36,0,0,1-.23.8,2.91,2.91,0,0,1-.33.37l-1.15,1.15c.11.23.25.45.37.68s.26.44.4.66a11.69,11.69,0,0,0,1.74,2.16,10.81,10.81,0,0,0,2,1.57c.43.28.88.53,1.33.77L20,18.25a1.42,1.42,0,0,1,.57-.36,1.31,1.31,0,0,1,1,.05,2.43,2.43,0,0,1,.61.5l2.34,2.34a1.37,1.37,0,0,1,.39.92v.06a1.72,1.72,0,0,1-.15.58,3.7,3.7,0,0,1-.72.81,1.61,1.61,0,0,1-.37.32,4.27,4.27,0,0,1-1.24.63,3.75,3.75,0,0,1-.64.16,2.24,2.24,0,0,1-.73,0,5.51,5.51,0,0,1-.91-.1c-.27,0-.52-.11-.79-.16s-.52-.15-.78-.25-.63-.25-.95-.37L16.76,23c-.38-.22-.78-.44-1.14-.69s-.87-.62-1.3-.94-.93-.77-1.36-1.19-.78-.78-1.17-1.18A17.48,17.48,0,0,1,8.9,15.1a7.8,7.8,0,0,1-.78-2.36A6.17,6.17,0,0,1,8.06,11a4.42,4.42,0,0,1,.82-2.22c0-.06.07-.14.13-.19L9.6,8A1.48,1.48,0,0,1,10.24,7.56Z"/></g></g></svg>