<?xml version="1.0" encoding="utf-8"?>
<!-- Generator: Adobe Illustrator 25.2.0, SVG Export Plug-In . SVG Version: 6.00 Build 0)  -->
<svg version="1.1" id="Layer_1" xmlns="http://www.w3.org/2000/svg" xmlns:xlink="http://www.w3.org/1999/xlink" x="0px" y="0px"
	 viewBox="0 0 250 250" style="enable-background:new 0 0 250 250;" xml:space="preserve">
<style type="text/css">
	.st0{fill:#3D3D3B;}
	.st1{fill:#020203;}
	.st2{fill-rule:evenodd;clip-rule:evenodd;fill:#020203;}
	.st3{fill:#444B54;}
	.st4{fill:#515151;}
</style>
<g>
	<g>
		<path class="st4" d="M209.3,95.6h-38.9l0.1-7.2l9.1-27.4H200l9.2,28.1V95.6z M174.7,91.3H205v-1.8l-8-24.1h-14.2l-8,24.1V91.3z"/>
	</g>
	<g>
		<rect x="187.7" y="93.4" class="st4" width="4.3" height="21.6"/>
	</g>
	<g>
		<path class="st4" d="M226.6,147.4h-56.2v-34.6h56.2V147.4z M174.7,143.1h47.5v-25.9h-47.5V143.1z"/>
	</g>
	<g>
		<path class="st4" d="M226.6,177.7h-56.2v-34.6h56.2V177.7z M174.7,173.4h47.5v-25.9h-47.5V173.4z"/>
	</g>
	<g>
		<rect x="174.7" y="175.5" class="st4" width="4.3" height="13"/>
	</g>
	<g>
		<rect x="144.4" y="175.5" class="st4" width="4.3" height="13"/>
	</g>
	<g>
		<rect x="32.1" y="175.5" class="st4" width="4.3" height="13"/>
	</g>
	<g>
		<rect x="217.9" y="175.5" class="st4" width="4.3" height="13"/>
	</g>
	<g>
		<path class="st4" d="M153.1,110.7h-4.3V67.5c0-1.2-1-2.2-2.2-2.2H34.2c-1.2,0-2.2,1-2.2,2.2v43.2h-4.3V67.5c0-3.6,2.9-6.5,6.5-6.5
			h112.4c3.6,0,6.5,2.9,6.5,6.5V110.7z"/>
	</g>
	<g>
		<path class="st4" d="M157.4,177.7h-134v-45.4c0-8.3,6.8-15.1,15.1-15.1h103.7c8.3,0,15.1,6.8,15.1,15.1V177.7z M27.8,173.4h125.3
			v-41.1c0-6-4.8-10.8-10.8-10.8H38.6c-6,0-10.8,4.8-10.8,10.8V173.4z"/>
	</g>
	<g>
		<path class="st4" d="M83.9,110.7h-4.3v-8.6c0-3.6-2.9-6.5-6.5-6.5H55.8c-3.6,0-6.5,2.9-6.5,6.5v8.6H45v-8.6
			c0-6,4.8-10.8,10.8-10.8h17.3c6,0,10.8,4.8,10.8,10.8V110.7z"/>
	</g>
	<g>
		<path class="st4" d="M135.8,110.7h-4.3v-8.6c0-3.6-2.9-6.5-6.5-6.5h-17.3c-3.6,0-6.5,2.9-6.5,6.5v8.6h-4.3v-8.6
			c0-6,4.8-10.8,10.8-10.8H125c6,0,10.8,4.8,10.8,10.8V110.7z"/>
	</g>
</g>
</svg>
