<?xml version="1.0" encoding="utf-8"?>
<!-- Generator: Adobe Illustrator 25.2.0, SVG Export Plug-In . SVG Version: 6.00 Build 0)  -->
<svg version="1.1" id="Layer_1" xmlns="http://www.w3.org/2000/svg" xmlns:xlink="http://www.w3.org/1999/xlink" x="0px" y="0px"
	 viewBox="0 0 250 250" style="enable-background:new 0 0 250 250;" xml:space="preserve">
<style type="text/css">
	.st0{fill:#3D3D3B;}
	.st1{fill:#020203;}
	.st2{fill-rule:evenodd;clip-rule:evenodd;fill:#020203;}
	.st3{fill:#444B54;}
	.st4{fill:#515151;}
</style>
<g>
	<g>
		<path class="st4" d="M167.5,195.8H82.5c-9.9,0-18-8.1-18-18V60.1c0-9.9,8.1-18,18-18h85.1c9.9,0,18,8.1,18,18v117.7
			C185.6,187.7,177.5,195.8,167.5,195.8z M82.5,49.2c-6,0-10.8,4.9-10.8,10.8v117.7c0,6,4.9,10.8,10.8,10.8h85.1
			c6,0,10.8-4.9,10.8-10.8V60.1c0-6-4.9-10.8-10.8-10.8H82.5z"/>
	</g>
	<g>
		<path class="st4" d="M173.8,208h-20.4c-4.2,0-7.7-3.4-7.7-7.7v-8.1h7.2v8.1c0,0.3,0.2,0.5,0.5,0.5h20.4c0.3,0,0.5-0.2,0.5-0.5
			v-8.1h7.2v8.1C181.5,204.5,178.1,208,173.8,208z"/>
	</g>
	<g>
		<path class="st4" d="M96.5,208H76.2c-4.2,0-7.7-3.4-7.7-7.7v-8.1h7.2v8.1c0,0.3,0.2,0.5,0.5,0.5h20.4c0.3,0,0.5-0.2,0.5-0.5v-8.1
			h7.2v8.1C104.2,204.5,100.7,208,96.5,208z"/>
	</g>
	<g>
		<rect x="68" y="135.6" class="st4" width="114" height="7.2"/>
	</g>
	<g>
		<rect x="80.2" y="156" class="st4" width="20.3" height="7.2"/>
	</g>
	<g>
		<rect x="149.4" y="156" class="st4" width="20.3" height="7.2"/>
	</g>
	<g>
		<rect x="68" y="66.5" class="st4" width="114" height="7.2"/>
	</g>
	<g>
		<path class="st4" d="M55.4,110.8h-7.2V86.3c0-1.1,0.5-2.2,1.4-2.9l16.3-12.2l4.3,5.8L55.4,88.1V110.8z"/>
	</g>
	<g>
		<path class="st4" d="M201.9,110.8h-7.2V88.1L179.8,77l4.3-5.8l16.3,12.2c0.9,0.7,1.4,1.7,1.4,2.9V110.8z"/>
	</g>
	<g>
		<rect x="121.4" y="70.1" class="st4" width="7.2" height="69.2"/>
	</g>
</g>
</svg>
