<?xml version="1.0" encoding="utf-8"?>
<!-- Generator: Adobe Illustrator 25.2.0, SVG Export Plug-In . SVG Version: 6.00 Build 0)  -->
<svg version="1.1" id="Layer_1" xmlns="http://www.w3.org/2000/svg" xmlns:xlink="http://www.w3.org/1999/xlink" x="0px" y="0px"
	 viewBox="0 0 250 250" style="enable-background:new 0 0 250 250;" xml:space="preserve">
<style type="text/css">
	.st0{fill:#3D3D3B;}
	.st1{fill:#020203;}
	.st2{fill-rule:evenodd;clip-rule:evenodd;fill:#020203;}
	.st3{fill:#444B54;}
	.st4{fill:#515151;}
</style>
<g>
	<g>
		<path class="st4" d="M77.3,211.5c-0.5,0-1-0.1-1.4-0.4c-1.4-0.8-2-2.6-1.2-4l15.9-28.9c0.8-1.4,2.6-2,4-1.2c1.4,0.8,2,2.6,1.2,4
			L79.9,210C79.4,210.9,78.4,211.5,77.3,211.5z"/>
	</g>
	<g>
		<path class="st4" d="M175,211.5c-1,0-2-0.5-2.6-1.5L156,181.1c-0.8-1.4-0.3-3.2,1.1-4.1c1.4-0.8,3.2-0.3,4.1,1.1l16.4,28.9
			c0.8,1.4,0.3,3.2-1.1,4.1C176,211.4,175.5,211.5,175,211.5z"/>
	</g>
	<g>
		<rect x="85.1" y="194.7" class="st4" width="83.5" height="6"/>
	</g>
	<g>
		<path class="st4" d="M163.9,182.4H86.1c-8.2,0-14.9-6.7-14.9-14.9v-96c0-8.2,6.7-14.9,14.9-14.9h77.9c8.2,0,14.9,6.7,14.9,14.9v96
			C178.8,175.8,172.1,182.4,163.9,182.4z M86.1,62.6c-4.9,0-8.9,4-8.9,8.9v96c0,4.9,4,8.9,8.9,8.9h77.9c4.9,0,8.9-4,8.9-8.9v-96
			c0-4.9-4-8.9-8.9-8.9H86.1z"/>
	</g>
	<g>
		<rect x="74.2" y="129.3" class="st4" width="101.7" height="6"/>
	</g>
	<g>
		<rect x="85.1" y="147.4" class="st4" width="18.2" height="6"/>
	</g>
	<g>
		<rect x="146.8" y="147.4" class="st4" width="18.2" height="6"/>
	</g>
	<g>
		<rect x="74.2" y="74.8" class="st4" width="101.7" height="6"/>
	</g>
	<g>
		<path class="st4" d="M62.6,117.7h-6V95.9c0-0.9,0.4-1.8,1.2-2.4l14.5-10.9l3.6,4.8l-13.3,10V117.7z"/>
	</g>
	<g>
		<path class="st4" d="M193.3,117.7h-6V97.5l-13.3-9.8l3.5-4.8l14.5,10.7c0.8,0.6,1.2,1.5,1.2,2.4V117.7z"/>
	</g>
	<g>
		<path class="st4" d="M142.1,61.2l-5.1-3.1l8.2-13.6h-40.3l8.2,13.6l-5.1,3.1L97,43c-0.6-0.9-0.6-2.1,0-3c0.5-0.9,1.5-1.5,2.6-1.5
			h50.8c1.1,0,2.1,0.6,2.6,1.5c0.5,0.9,0.5,2.1,0,3L142.1,61.2z"/>
	</g>
</g>
</svg>
