<svg xmlns="http://www.w3.org/2000/svg" viewBox="0 0 47.36 38.31"><defs><style>.cls-1{fill:#3c3c3b;}</style></defs><g id="katman_2" data-name="katman 2"><g id="katman_1-2" data-name="katman 1"><path class="cls-1" d="M35.31,16.64a4.59,4.59,0,1,0-4.59,4.58A4.59,4.59,0,0,0,35.31,16.64Zm-1.13,0a3.46,3.46,0,1,1-3.46-3.45A3.46,3.46,0,0,1,34.18,16.64Z"/><path class="cls-1" d="M46.84,13.74l-3.92-.31a12.7,12.7,0,0,0-1.3-3.14l2.55-3a.56.56,0,0,0,0-.76l-3.3-3.31a.57.57,0,0,0-.77,0l-3,2.56a12.57,12.57,0,0,0-3.15-1.31L33.62.52A.57.57,0,0,0,33.06,0H28.38a.57.57,0,0,0-.56.52l-.31,3.92a12.51,12.51,0,0,0-3.14,1.31l-3-2.56a.56.56,0,0,0-.76,0L17.3,6.53a.56.56,0,0,0,0,.76l2.56,3a12.51,12.51,0,0,0-1.31,3.14l-1.81.15.09,1.12L19,14.52a.54.54,0,0,0,.5-.43A11.34,11.34,0,0,1,21,10.53.56.56,0,0,0,21,9.87L18.47,7,21,4.39,24,6.87a.56.56,0,0,0,.66,0,11.44,11.44,0,0,1,3.56-1.48.54.54,0,0,0,.43-.5l.31-3.81h3.63l.3,3.81a.56.56,0,0,0,.44.5,11.39,11.39,0,0,1,3.55,1.48.57.57,0,0,0,.67,0l2.91-2.48L43,7,40.49,9.87a.54.54,0,0,0,0,.66,11.32,11.32,0,0,1,1.47,3.56.56.56,0,0,0,.51.43l3.81.3v3.64l-3.81.3a.57.57,0,0,0-.51.44,11.27,11.27,0,0,1-1.47,3.55.56.56,0,0,0,0,.67L43,26.33,40.41,28.9l-3-2.58-.73.85,3.42,2.92a.55.55,0,0,0,.37.14.56.56,0,0,0,.4-.17l3.3-3.31a.56.56,0,0,0,0-.76l-2.55-3a12.93,12.93,0,0,0,1.3-3.15l3.92-.31a.55.55,0,0,0,.52-.56V14.3A.57.57,0,0,0,46.84,13.74Z"/><path class="cls-1" d="M9.62,23.23a4.63,4.63,0,0,0,4.58-4.87V16.93a4.59,4.59,0,1,0-9.16,0v1.43A4.63,4.63,0,0,0,9.62,23.23ZM6.17,18.36V16.93a3.52,3.52,0,0,1,3.45-3.74,3.53,3.53,0,0,1,3.46,3.74v1.43a3.53,3.53,0,0,1-3.46,3.75A3.53,3.53,0,0,1,6.17,18.36Z"/><path class="cls-1" d="M21.22,33.66a.58.58,0,0,0-.56-.5H14.88L8,25.31a.59.59,0,0,0-.43-.19h-2c-2.43,0-4.18,1.73-4.58,4.51-.31,2.2-.88,7.06-1,8l0,.19L1.12,38l0-.22c.15-1.34.69-5.86,1-8s1.61-3.53,3.46-3.53H7.36L14.2,34.1a.57.57,0,0,0,.43.19h5.48a3.59,3.59,0,0,1-.71,2.21,2.27,2.27,0,0,1-1.76.68H11.89L6.94,31.24,6.08,32l4.35,5.22h-4v1.13H35.9V37.18H20.29A5.23,5.23,0,0,0,21.22,33.66Z"/><path class="cls-1" d="M19.2,24.37l-4.1,6.15.94.63L20,25.24H32.74l-5.35,8.93H22.53v1.12h5.18a.55.55,0,0,0,.48-.27l6-10.05a.55.55,0,0,0,0-.57.58.58,0,0,0-.49-.28H19.67A.56.56,0,0,0,19.2,24.37Z"/></g></g></svg>