<svg xmlns="http://www.w3.org/2000/svg" viewBox="0 0 41.94 36.67"><defs><style>.cls-1{fill:#3c3c3b;}</style></defs><g id="katman_2" data-name="katman 2"><g id="katman_1-2" data-name="katman 1"><path class="cls-1" d="M41.76,15.65a4.15,4.15,0,0,0-4.17-1.11c-1.83.43-2.85,1.76-3.9,3.76l-3.43,1.78a3.35,3.35,0,0,0-2.54-1H22.27a4,4,0,0,1-1-.64,4.38,4.38,0,0,0-2.37-1.18H14.36a6.77,6.77,0,0,0-4,2c-1,1-2.57,2.5-3.32,3.22L5.38,20.78l-.11-.11L.11,25.84,0,26,10.62,36.57l.1.1,5.17-5.17.11-.1-.92-.92a1.49,1.49,0,0,1,1.09-.38H29.54c1.45,0,7.59-6.46,7.65-6.53a48.73,48.73,0,0,0,4.63-7.41l.12-.27ZM5.27,22.14l9.26,9.26-3.81,3.8L1.47,26Zm2.5,1c.83-.79,2.34-2.23,3.31-3.2a5.84,5.84,0,0,1,3.28-1.68H18.9a3.82,3.82,0,0,1,1.74,1,3.13,3.13,0,0,0,1.63.86h5.45c1.52,0,2.2.91,2.2,1.75s-.68,1.75-2.2,1.75H19.4v1h8.32A2.93,2.93,0,0,0,31,21.86,2.74,2.74,0,0,0,30.8,21l3.62-1.88,0,0,.08-.15c1.12-2.18,2-3.06,3.29-3.36a3.39,3.39,0,0,1,2.9.5,50.63,50.63,0,0,1-4.32,6.82c-.34.39-1.87,1.94-3.43,3.39-2.84,2.65-3.44,2.79-3.44,2.79H16.17a2.47,2.47,0,0,0-1.82.69Z"/><rect class="cls-1" x="5.66" y="25.42" width="1.04" height="2.87" transform="translate(-17.18 12.24) rotate(-45)"/><path class="cls-1" d="M19.09,7.4A3.7,3.7,0,1,0,15.4,3.7,3.7,3.7,0,0,0,19.09,7.4ZM16.43,3.7a2.66,2.66,0,1,1,2.66,2.66A2.67,2.67,0,0,1,16.43,3.7Z"/><path class="cls-1" d="M24.48,11.87a3.7,3.7,0,1,0,3.69-3.7A3.7,3.7,0,0,0,24.48,11.87Zm6.35,0a2.66,2.66,0,1,1-2.66-2.66A2.66,2.66,0,0,1,30.83,11.87Z"/><polygon class="cls-1" points="17.23 14.84 18.04 15.49 29.94 0.85 30.04 0.73 29.23 0.08 17.33 14.72 17.23 14.84"/></g></g></svg>